<?xml version="1.0" encoding="UTF-8"?>
<svg width="188px" height="40px" viewBox="0 0 188 40" version="1.1" xmlns="http://www.w3.org/2000/svg" xmlns:xlink="http://www.w3.org/1999/xlink">
    <title>Group 9</title>
    <g id="Page-2-Copy" stroke="none" stroke-width="1" fill="none" fill-rule="evenodd">
        <g id="frontpage" transform="translate(-30.000000, -24.000000)">
            <g id="Group-9" transform="translate(30.000000, 24.000000)">
                <g id="Fiberline_Composites_Logo_No_Icon" transform="translate(0.000000, 11.000000)" fill="#1C3640">
                    <g id="Group-13">
                        <polyline id="Fill-1" points="111.336751 16.8199434 124 16.8199434 124 13.7743569 114.688756 13.7743569 114.688756 9.53449177 122.882575 9.53449177 122.882575 6.6297745 114.688756 6.6297745 114.688756 2.90471727 123.60424 2.90471727 123.60424 0 111.336751 0 111.336751 16.8199434"></polyline>
                        <polyline id="Fill-2" points="107.193763 0 103.84149 0 103.84149 11.4552878 103.795009 11.4552878 97.1842296 0 93.646032 0 93.646032 16.8199434 96.9980369 16.8199434 96.9980369 5.43495503 97.0445179 5.43495503 103.655297 16.8199434 107.193763 16.8199434 107.193763 0"></polyline>
                        <polygon id="Fill-3" points="86.104021 16.8199434 89.5954689 16.8199434 89.5954689 0.00027038232 86.104021 0.00027038232"></polygon>
                        <polyline id="Fill-4" points="76.1178622 0 72.6261457 0 72.6261457 16.8199434 83.860843 16.8199434 83.860843 13.7743569 76.1178622 13.7743569 76.1178622 0"></polyline>
                        <polyline id="Fill-5" points="39.5023943 16.8199434 52.1653746 16.8199434 52.1653746 13.7743569 42.8541305 13.7743569 42.8541305 9.53449177 51.04795 9.53449177 51.04795 6.6297745 42.8541305 6.6297745 42.8541305 2.90471727 51.7696144 2.90471727 51.7696144 0 39.5023943 0 39.5023943 16.8199434"></polyline>
                        <path d="M22.2302729,16.8199434 L29.8886207,16.8199434 C33.6597605,16.8199434 36.1039084,15.0394758 36.1039084,11.7832615 C36.1039084,10.354291 35.7546292,8.59734665 33.5200489,7.75402419 C34.9864839,7.0045244 35.5684366,5.99707987 35.5684366,4.31043496 C35.5684366,2.52996737 34.5211366,0 30.4240925,0 L22.2302729,0 L22.2302729,16.8199434 Z M25.5822778,9.39389296 L29.8421397,9.39389296 C31.2156127,9.39389296 32.6121918,9.69834346 32.6121918,11.6426627 C32.6121918,13.1887088 31.4716612,13.9149557 29.9353704,13.9149557 L25.5822778,13.9149557 L25.5822778,9.39389296 Z M25.5822778,2.90471727 L29.9818514,2.90471727 C31.2156127,2.90471727 32.2164317,3.27946717 32.2164317,4.70870811 C32.2164317,6.09063215 31.0992759,6.6297745 29.8886207,6.6297745 L25.5822778,6.6297745 L25.5822778,2.90471727 L25.5822778,2.90471727 Z" id="Fill-6"></path>
                        <polygon id="Fill-7" points="14.4088386 16.8199434 17.9005551 16.8199434 17.9005551 0.00027038232 14.4088386 0.00027038232"></polygon>
                        <polyline id="Fill-8" points="3.49171654 9.7451196 10.8475349 9.7451196 10.8475349 6.77010293 3.49171654 6.77010293 3.49171654 2.97528706 11.8951036 2.97528706 11.8951036 0 0 0 0 16.8199434 3.49171654 16.8199434 3.49171654 9.7451196"></polyline>
                        <path d="M59.1926019,10.2812877 L63.1555765,10.2812877 L65.7284203,16.8199434 L69.4702744,16.8199434 L66.3587348,9.44418408 C68.1717621,8.77823242 69.2741408,7.0029021 69.2741408,5.07967266 C69.2741408,3.42763668 68.514593,1.77533032 67.1427321,0.863060367 C65.8439511,0.0248751735 64.3248556,0.00027038232 62.8299409,0.00027038232 L55.7487097,0.00027038232 L55.7487097,16.8199434 L59.1926019,16.8199434 L59.1926019,10.2812877 Z M59.1759439,7.40252717 L59.1759439,2.90471727 L63.5290365,2.90471727 C65.5774243,2.90471727 65.9729157,4.21661229 65.9729157,5.10698127 C65.9729157,6.77010293 65.0884335,7.40252717 63.2727194,7.40252717 L59.1759439,7.40252717 L59.1759439,7.40252717 Z" id="Fill-9"></path>
                    </g>
                    <g id="Group-2" transform="translate(24.000000, 24.000000)">
                        <path d="M4.15937702,1.58362925 L3.35334827,1.58362925 C3.19214252,0.967157561 2.81169695,0.661895921 2.20556333,0.661895921 C1.32833538,0.661895921 0.806028748,1.39544316 0.806028748,2.42749247 C0.806028748,3.45278223 1.32215582,4.19254826 2.20556333,4.19254826 C2.86328279,4.19254826 3.2953142,3.72505723 3.37914119,2.97907241 L4.16582525,2.97907241 C4.08199826,4.08872145 3.34045181,4.85444418 2.20556333,4.85444418 C1.5542921,4.85444418 1.02553724,4.62083386 0.612581849,4.16659156 C0.20634336,3.7055897 0,3.12156389 0,2.42749247 C0,1.10343025 0.818925208,0 2.20556333,0 C3.26952128,0 4.05620534,0.603763722 4.15937702,1.58362925" id="Fill-10"></path>
                        <path d="M10.7298547,4.19254826 C11.7228821,4.19254826 12.1293893,3.30974999 12.1293893,2.42749247 C12.1293893,1.5446942 11.7164339,0.661895921 10.7234065,0.661895921 C9.73037905,0.661895921 9.33058879,1.55118337 9.33058879,2.42749247 C9.33058879,3.30353119 9.74327551,4.19254826 10.7298547,4.19254826 Z M12.935418,2.42749247 C12.935418,3.75777349 12.0971481,4.85444418 10.7298547,4.85444418 C9.34993348,4.85444418 8.52456004,3.75128432 8.52456004,2.42749247 C8.52456004,1.10991943 9.35638171,0 10.7298547,0 C12.1035964,0 12.935418,1.10991943 12.935418,2.42749247 L12.935418,2.42749247 Z" id="Fill-11"></path>
                        <polyline id="Fill-12" points="18.6611776 0.110315987 19.9314789 3.73803558 19.9443753 3.73803558 21.1824355 0.110315987 22.3046962 0.110315987 22.3046962 4.7441282 21.5373568 4.7441282 21.5373568 1.16805162 21.5241917 1.16805162 20.2474422 4.7441282 19.5832745 4.7441282 18.3062563 1.16805162 18.2933598 1.16805162 18.2933598 4.7441282 17.5260204 4.7441282 17.5260204 0.110315987 18.6611776 0.110315987"></polyline>
                        <path d="M29.1459995,2.30419814 C29.5718514,2.30419814 29.9329523,2.04436073 29.9329523,1.53820502 C29.9329523,1.01907097 29.6556784,0.77248229 29.1653442,0.77248229 L27.9466288,0.77248229 L27.9466288,2.30419814 L29.1459995,2.30419814 Z M29.2040336,0.110315987 C30.1908815,0.110315987 30.738981,0.655677127 30.738981,1.5446942 C30.738981,2.44668962 30.1777163,2.96609406 29.2040336,2.96609406 L27.9466288,2.96609406 L27.9466288,4.7441282 L27.1406,4.7441282 L27.1406,0.110315987 L29.2040336,0.110315987 L29.2040336,0.110315987 Z" id="Fill-13"></path>
                        <path d="M37.2705006,4.19254826 C38.2640654,4.19254826 38.6700352,3.30974999 38.6700352,2.42749247 C38.6700352,1.5446942 38.2573485,0.661895921 37.2643211,0.661895921 C36.2712937,0.661895921 35.8712347,1.55118337 35.8712347,2.42749247 C35.8712347,3.30353119 36.2839215,4.19254826 37.2705006,4.19254826 Z M39.476064,2.42749247 C39.476064,3.75777349 38.6377941,4.85444418 37.2705006,4.85444418 C35.8908481,4.85444418 35.065206,3.75128432 35.065206,2.42749247 C35.065206,1.10991943 35.8970277,0 37.2705006,0 C38.644511,0 39.476064,1.10991943 39.476064,2.42749247 L39.476064,2.42749247 Z" id="Fill-14"></path>
                        <path d="M47.4267316,1.47980244 L46.6207028,1.47980244 L46.6207028,1.47331326 C46.569117,0.928222507 46.2464368,0.661895921 45.6274067,0.661895921 C45.1440581,0.661895921 44.7826886,0.876038719 44.7826886,1.26565964 C44.7826886,1.5706509 44.9761355,1.77181535 45.3697462,1.87564216 L46.6013581,2.20010094 C46.9947001,2.30419814 47.5559648,2.68029994 47.5559648,3.40059845 C47.5559648,4.3158426 46.8074328,4.85444418 45.7243988,4.85444418 C44.569897,4.85444418 43.8219023,4.2639292 43.8025576,3.199434 L44.608855,3.199434 C44.6150346,3.86132992 45.0728589,4.19254826 45.7759847,4.19254826 C46.3950148,4.19254826 46.7499361,3.90053536 46.7499361,3.49144691 C46.7499361,3.199434 46.6075377,2.99826955 46.3692218,2.92066983 C46.1112926,2.83604016 45.9111288,2.77763758 45.0535142,2.55700561 C44.3248643,2.37530869 43.9763912,1.96649062 43.9763912,1.36299728 C43.9763912,0.422066802 44.821378,0 45.6599165,0 C46.6593922,0 47.420552,0.545361141 47.4267316,1.47980244" id="Fill-15"></path>
                        <polygon id="Fill-16" points="52.1269539 4.7441282 52.9329826 4.7441282 52.9329826 0.110315987 52.1269539 0.110315987"></polygon>
                        <polyline id="Fill-17" points="61.0776344 0.110315987 61.0776344 0.811417344 59.6136176 0.811417344 59.6136176 4.7441282 58.8075888 4.7441282 58.8075888 0.811417344 57.3500202 0.811417344 57.3500202 0.110315987 61.0776344 0.110315987"></polyline>
                        <polyline id="Fill-18" points="68.7958971 0.110315987 68.7958971 0.811417344 66.2872669 0.811417344 66.2872669 2.0248932 68.6091671 2.0248932 68.6091671 2.6870595 66.2872669 2.6870595 66.2872669 4.04329722 68.8410347 4.04329722 68.8410347 4.7441282 65.4812382 4.7441282 65.4812382 0.110315987 68.7958971 0.110315987"></polyline>
                        <path d="M76.7594611,1.47980244 L75.9531637,1.47980244 L75.9531637,1.47331326 C75.9015778,0.928222507 75.5791663,0.661895921 74.9604049,0.661895921 C74.476519,0.661895921 74.1154181,0.876038719 74.1154181,1.26565964 C74.1154181,1.5706509 74.3091337,1.77181535 74.702207,1.87564216 L75.9340876,2.20010094 C76.327161,2.30419814 76.888157,2.68029994 76.888157,3.40059845 C76.888157,4.3158426 76.140431,4.85444418 75.0568597,4.85444418 C73.9026265,4.85444418 73.1546318,4.2639292 73.1352872,3.199434 L73.9413159,3.199434 C73.9477641,3.86132992 74.4055885,4.19254826 75.1084455,4.19254826 C75.7274756,4.19254826 76.0821283,3.90053536 76.0821283,3.49144691 C76.0821283,3.199434 75.9405359,2.99826955 75.7016827,2.92066983 C75.4437535,2.83604016 75.2438584,2.77763758 74.3862438,2.55700561 C73.6575938,2.37530869 73.3093894,1.96649062 73.3093894,1.36299728 C73.3093894,0.422066802 74.1543762,0 74.9923774,0 C75.991853,0 76.7527442,0.545361141 76.7594611,1.47980244" id="Fill-19"></path>
                    </g>
                </g>
                <g id="Fiberline_Composites_Icon_StandAlone" transform="translate(139.000000, 0.000000)">
                    <path d="M45.3846752,16.4204567 L45.3846752,16.4184782 L29.0041687,16.4184782 L29.0041687,16.4202918 C29.0035013,16.4202918 29.0025001,16.4202918 29.0016659,16.4202918 C27.0008647,16.4202918 25.3789993,18.0229333 25.3789993,19.9998542 C25.3789993,21.97694 27.0008647,23.5795815 29.0016659,23.5795815 C29.0275289,23.5795815 29.0532252,23.5780975 29.0792551,23.5776029 L45.2999111,23.5776029 C45.3257741,23.5780975 45.3514704,23.5795815 45.3775003,23.5795815 C47.3783015,23.5795815 49,21.97694 49,19.9998542 C49,18.0254065 47.3821392,16.4244139 45.3846752,16.4204567" id="Fill-1" fill="#3C8F73"></path>
                    <path d="M18.0125268,22.0938405 C18.0081885,22.0968083 18.0040171,22.100106 17.9996787,22.1032387 L17.9983439,22.101425 L1.54625506,33.4847961 L1.54725621,33.48628 C1.54658877,33.4867747 1.54575448,33.4872693 1.54508705,33.487764 C-0.0937978951,34.6218142 -0.492089318,36.8538057 0.655397115,38.473265 C1.80288355,40.0927243 4.06181496,40.4862948 5.7006999,39.3522446 C5.7220578,39.3375702 5.74224769,39.3219065 5.76327187,39.3067375 L22.1035654,28.0006955 C22.1250902,27.9865157 22.1469487,27.9729955 22.1683066,27.9583211 C23.8071915,26.8242709 24.2054829,24.5922794 23.0579965,22.9728201 C21.9103432,21.3533608 19.6515786,20.9597903 18.0125268,22.0938405" id="Fill-3" fill="#1C3640"></path>
                    <path d="M22.1683066,12.0417171 C22.1638014,12.0385843 22.1592962,12.0359462 22.1549579,12.0328135 L22.155959,12.0311647 L5.70387021,0.647793603 L5.70286906,0.64927753 C5.70220163,0.648782887 5.70136734,0.648123364 5.7006999,0.647628722 C4.06181496,-0.486256605 1.80288355,-0.0926861129 0.655397115,1.5267732 C-0.492089318,3.14606763 -0.0937978951,5.37822403 1.54508705,6.51227423 C1.56627809,6.52694863 1.58830342,6.54046885 1.60982817,6.5546486 L17.9501217,17.8606906 C17.9709791,17.8756947 17.9913358,17.8915233 18.0125268,17.9061977 C19.6515786,19.0402479 21.9103432,18.6466774 23.0579965,17.0272181 C24.2054829,15.4077588 23.8071915,13.1756024 22.1683066,12.0417171" id="Fill-4" fill="#1C3640"></path>
                </g>
            </g>
        </g>
    </g>
</svg>